<svg width="225" height="97" viewBox="0 0 225 97" fill="none" xmlns="http://www.w3.org/2000/svg">
<g clip-path="url(#clip0_5_526)">
<path d="M99.8875 89.1168C124.117 88.5683 151.137 86.4441 177.667 80.1298C185.906 78.1689 194.006 75.8347 201.651 71.9597C205.103 70.2582 208.372 68.209 211.409 65.8439C213.615 64.0301 215.471 61.8266 216.883 59.343C220.221 53.5072 219.287 47.5197 214.187 43.178C211.131 40.6318 207.775 38.4682 204.196 36.7354C193.855 31.8105 183.006 28.0336 171.842 25.4724C162.609 23.4076 153.213 22.1578 143.761 21.7375C142.646 21.7836 141.532 21.6335 140.469 21.294C139.699 20.9439 138.661 19.8585 138.753 19.2282C138.888 18.7336 139.123 18.2717 139.442 17.8704C139.76 17.4691 140.158 17.1369 140.61 16.8939C141.556 16.5956 142.556 16.5118 143.539 16.6487C158.898 16.4971 173.733 19.5667 188.171 24.527C195.208 26.9852 202.105 29.8296 208.829 33.0471C212.403 34.8045 215.689 37.0949 218.575 39.84C224.632 45.5123 225.869 53.1688 222.426 60.7085C220.62 64.5615 217.924 67.9298 214.56 70.5358C208.654 75.2861 201.861 78.3207 194.789 80.8184C181.133 85.662 166.976 88.4165 152.666 90.4473C135.649 92.862 118.497 94.2104 101.312 94.4856C80.7115 94.8128 60.2399 93.7624 40.1182 89.0118C32.0864 87.229 24.3727 84.234 17.2422 80.1298C12.5346 77.5397 8.40443 74.0171 5.10394 69.7772C-0.148208 62.681 -0.673425 55.1412 3.20149 47.298C5.46665 42.9848 8.52791 39.1395 12.2235 35.965C21.7591 27.2698 32.9987 21.4458 44.9036 16.8239C60.4266 10.7897 76.6033 7.4867 93.0829 5.45588C114.134 3.04174 135.392 3.07307 156.436 5.54924C174.655 7.56841 192.617 10.9064 209.857 17.4074C212.062 18.2478 214.187 19.2866 216.334 20.2786C217.828 20.9789 218.796 22.0643 218.154 23.7801C217.676 25.0989 216.229 25.4958 214.303 24.632C203.449 19.7067 191.906 17.2324 180.339 14.8047C166.797 12.0763 153.073 10.3327 139.279 9.58757C114.9 7.98784 90.4187 10.0692 66.6592 15.7617C53.7882 18.7214 41.4048 23.5002 29.8824 29.9543C23.8409 33.2321 18.3315 37.4073 13.5424 42.3377C11.7447 44.2329 10.1487 46.3099 8.78044 48.5351C4.62541 55.4563 5.27903 62.2608 10.8463 68.0031C13.7405 70.9033 16.978 73.4393 20.4869 75.5546C28.2134 80.3049 36.8269 82.7909 45.6506 84.5999C62.5975 88.1248 79.7195 89.1518 99.8875 89.1168Z" fill="#2B7FFF"/>
</g>
<path d="M63.7093 30.4034V65.3125H57.3855V36.5568H57.1809L49.0162 41.7727V35.9773L57.6923 30.4034H63.7093ZM85.4764 65.9773C82.6696 65.9773 80.2605 65.267 78.2491 63.8466C76.2491 62.4148 74.7093 60.3523 73.6298 57.6591C72.5616 54.9545 72.0275 51.6989 72.0275 47.892C72.0389 44.0852 72.5787 40.8466 73.6468 38.1761C74.7264 35.4943 76.2662 33.4489 78.2662 32.0398C80.2775 30.6307 82.6809 29.9261 85.4764 29.9261C88.2718 29.9261 90.6752 30.6307 92.6866 32.0398C94.698 33.4489 96.2377 35.4943 97.3059 38.1761C98.3855 40.858 98.9252 44.0966 98.9252 47.892C98.9252 51.7102 98.3855 54.9716 97.3059 57.6761C96.2377 60.3693 94.698 62.4261 92.6866 63.8466C90.6866 65.267 88.2832 65.9773 85.4764 65.9773ZM85.4764 60.642C87.6582 60.642 89.3798 59.5682 90.6412 57.4205C91.9139 55.2614 92.5502 52.0852 92.5502 47.892C92.5502 45.1193 92.2605 42.7898 91.6809 40.9034C91.1014 39.017 90.2832 37.5966 89.2264 36.642C88.1696 35.6761 86.9196 35.1932 85.4764 35.1932C83.3059 35.1932 81.59 36.2727 80.3287 38.4318C79.0673 40.5795 78.4309 43.733 78.4196 47.892C78.4082 50.6761 78.6866 53.017 79.2548 54.9148C79.8343 56.8125 80.6525 58.2443 81.7093 59.2102C82.7662 60.1648 84.0218 60.642 85.4764 60.642ZM117.492 65.9773C114.685 65.9773 112.276 65.267 110.265 63.8466C108.265 62.4148 106.725 60.3523 105.645 57.6591C104.577 54.9545 104.043 51.6989 104.043 47.892C104.055 44.0852 104.594 40.8466 105.662 38.1761C106.742 35.4943 108.282 33.4489 110.282 32.0398C112.293 30.6307 114.697 29.9261 117.492 29.9261C120.287 29.9261 122.691 30.6307 124.702 32.0398C126.714 33.4489 128.253 35.4943 129.322 38.1761C130.401 40.858 130.941 44.0966 130.941 47.892C130.941 51.7102 130.401 54.9716 129.322 57.6761C128.253 60.3693 126.714 62.4261 124.702 63.8466C122.702 65.267 120.299 65.9773 117.492 65.9773ZM117.492 60.642C119.674 60.642 121.395 59.5682 122.657 57.4205C123.93 55.2614 124.566 52.0852 124.566 47.892C124.566 45.1193 124.276 42.7898 123.697 40.9034C123.117 39.017 122.299 37.5966 121.242 36.642C120.185 35.6761 118.935 35.1932 117.492 35.1932C115.322 35.1932 113.606 36.2727 112.344 38.4318C111.083 40.5795 110.447 43.733 110.435 47.892C110.424 50.6761 110.702 53.017 111.27 54.9148C111.85 56.8125 112.668 58.2443 113.725 59.2102C114.782 60.1648 116.037 60.642 117.492 60.642ZM155.269 58.767V56.9261C155.269 55.5739 155.553 54.3295 156.121 53.1932C156.701 52.0568 157.542 51.142 158.644 50.4489C159.746 49.7557 161.081 49.4091 162.65 49.4091C164.263 49.4091 165.616 49.7557 166.706 50.4489C167.797 51.1307 168.621 52.0398 169.178 53.1761C169.746 54.3125 170.03 55.5625 170.03 56.9261V58.767C170.03 60.1193 169.746 61.3636 169.178 62.5C168.61 63.6364 167.775 64.5511 166.672 65.2443C165.582 65.9375 164.241 66.2841 162.65 66.2841C161.059 66.2841 159.712 65.9375 158.61 65.2443C157.508 64.5511 156.672 63.6364 156.104 62.5C155.547 61.3636 155.269 60.1193 155.269 58.767ZM159.718 56.9261V58.767C159.718 59.6648 159.934 60.4886 160.366 61.2386C160.797 61.9886 161.559 62.3636 162.65 62.3636C163.752 62.3636 164.508 61.9943 164.917 61.2557C165.337 60.5057 165.547 59.6761 165.547 58.767V56.9261C165.547 56.017 165.349 55.1875 164.951 54.4375C164.553 53.6761 163.786 53.2955 162.65 53.2955C161.581 53.2955 160.826 53.6761 160.383 54.4375C159.939 55.1875 159.718 56.017 159.718 56.9261ZM137.525 38.7898V36.9489C137.525 35.5852 137.814 34.3352 138.394 33.1989C138.974 32.0625 139.814 31.1534 140.917 30.4716C142.019 29.7784 143.354 29.4318 144.922 29.4318C146.525 29.4318 147.871 29.7784 148.962 30.4716C150.064 31.1534 150.894 32.0625 151.451 33.1989C152.008 34.3352 152.286 35.5852 152.286 36.9489V38.7898C152.286 40.1534 152.002 41.4034 151.434 42.5398C150.877 43.6648 150.047 44.5682 148.945 45.25C147.843 45.9318 146.502 46.2727 144.922 46.2727C143.32 46.2727 141.968 45.9318 140.866 45.25C139.775 44.5682 138.945 43.6591 138.377 42.5227C137.809 41.3864 137.525 40.142 137.525 38.7898ZM142.008 36.9489V38.7898C142.008 39.6989 142.218 40.5284 142.638 41.2784C143.07 42.017 143.831 42.3864 144.922 42.3864C146.013 42.3864 146.763 42.017 147.172 41.2784C147.593 40.5284 147.803 39.6989 147.803 38.7898V36.9489C147.803 36.0398 147.604 35.2102 147.206 34.4602C146.809 33.6989 146.047 33.3182 144.922 33.3182C143.843 33.3182 143.087 33.6989 142.655 34.4602C142.224 35.2216 142.008 36.0511 142.008 36.9489ZM139.468 65.3125L163.468 30.4034H167.729L143.729 65.3125H139.468Z" fill="#FAFAFA"/>
<defs>
<clipPath id="clip0_5_526">
<rect width="224" height="96" fill="white" transform="translate(0.330078 0.8125)"/>
</clipPath>
</defs>
</svg>
