<svg width="306" height="98" viewBox="0 0 306 98" fill="none" xmlns="http://www.w3.org/2000/svg">
<g clip-path="url(#clip0_5_494)">
<mask id="mask0_5_494" style="mask-type:luminance" maskUnits="userSpaceOnUse" x="11" y="11" width="284" height="25">
<path d="M294.108 11.6121H11.5518V35.2901H294.108V11.6121Z" fill="white"/>
</mask>
<g mask="url(#mask0_5_494)">
<path d="M23.3905 35.2896C29.9289 35.2896 35.2293 29.9892 35.2293 23.4509C35.2293 16.9125 29.9289 11.6121 23.3905 11.6121C16.8522 11.6121 11.5518 16.9125 11.5518 23.4509C11.5518 29.9892 16.8522 35.2896 23.3905 35.2896Z" fill="#2B7FFF"/>
<path d="M23.3909 18.7157V28.1867" stroke="white" stroke-width="1.57851" stroke-linecap="round" stroke-linejoin="round"/>
<path d="M28.1263 23.4513L23.3908 28.1868L18.6553 23.4513" stroke="white" stroke-width="1.57851" stroke-linecap="round" stroke-linejoin="round"/>
<path d="M44.0989 25.819H46.9098C49.2298 25.819 50.5732 24.3838 50.5732 21.9128V21.902C50.5732 19.4579 49.219 18.0335 46.9098 18.0335H44.0989V25.819ZM45.3075 24.7777V19.0749H46.7749C48.3881 19.0749 49.3431 20.1269 49.3431 21.9182V21.929C49.3431 23.7364 48.4043 24.7777 46.7749 24.7777H45.3075ZM55.3496 25.9323C57.0653 25.9323 58.1173 24.7831 58.1173 22.8947V22.8839C58.1173 20.9956 57.0599 19.8464 55.3496 19.8464C53.6339 19.8464 52.5764 21.001 52.5764 22.8839V22.8947C52.5764 24.7831 53.6285 25.9323 55.3496 25.9323ZM55.3496 24.9557C54.3407 24.9557 53.7742 24.195 53.7742 22.8947V22.8839C53.7742 21.5837 54.3407 20.8229 55.3496 20.8229C56.3531 20.8229 56.925 21.5837 56.925 22.8839V22.8947C56.925 24.1895 56.3531 24.9557 55.3496 24.9557ZM61.205 25.819H62.3974L63.6059 21.4488H63.6976L64.9116 25.819H66.1147L67.7279 19.9597H66.568L65.5212 24.4809H65.4295L64.221 19.9597H63.1095L61.901 24.4809H61.8147L60.7626 19.9597H59.5865L61.205 25.819ZM69.7149 25.819H70.8857V22.3822C70.8857 21.438 71.4198 20.8499 72.2776 20.8499C73.1355 20.8499 73.5401 21.3301 73.5401 22.3013V25.819H74.7055V22.026C74.7055 20.6287 73.9826 19.8464 72.6716 19.8464C71.8191 19.8464 71.2579 20.224 70.972 20.8499H70.8857V19.9597H69.7149V25.819ZM77.1835 25.819H78.3543V17.6613H77.1835V25.819ZM83.3679 25.9323C85.0837 25.9323 86.1358 24.7831 86.1358 22.8947V22.8839C86.1358 20.9956 85.0782 19.8464 83.3679 19.8464C81.6521 19.8464 80.5953 21.001 80.5953 22.8839V22.8947C80.5953 24.7831 81.6473 25.9323 83.3679 25.9323ZM83.3679 24.9557C82.3592 24.9557 81.7926 24.195 81.7926 22.8947V22.8839C81.7926 21.5837 82.3592 20.8229 83.3679 20.8229C84.3718 20.8229 84.9433 21.5837 84.9433 22.8839V22.8947C84.9433 24.1895 84.3718 24.9557 83.3679 24.9557ZM89.9305 25.916C90.7072 25.916 91.322 25.5815 91.6677 24.9881H91.7593V25.819H92.9195V21.8103C92.9195 20.5801 92.0884 19.8464 90.6156 19.8464C89.2826 19.8464 88.3599 20.4884 88.2202 21.4488L88.2147 21.4865H89.3426L89.3473 21.465C89.4878 21.0495 89.914 20.8121 90.5612 20.8121C91.3544 20.8121 91.7593 21.1682 91.7593 21.8103V22.3282L90.1729 22.42C88.7759 22.5062 87.9882 23.1159 87.9882 24.1626V24.1734C87.9882 25.2362 88.8138 25.916 89.9305 25.916ZM89.1531 24.1248V24.114C89.1531 23.5853 89.5201 23.294 90.3291 23.2454L91.7593 23.1536V23.6555C91.7593 24.4108 91.1176 24.9827 90.2431 24.9827C89.6117 24.9827 89.1531 24.6644 89.1531 24.1248ZM97.4963 25.916C98.3164 25.916 98.958 25.5384 99.2982 24.8964H99.3897V25.819H100.555V17.6613H99.3897V20.8877H99.2982C98.9849 20.2564 98.2998 19.8572 97.4963 19.8572C96.007 19.8572 95.0678 21.028 95.0678 22.8839V22.8947C95.0678 24.7345 96.0228 25.916 97.4963 25.916ZM97.8302 24.9179C96.8484 24.9179 96.2604 24.1518 96.2604 22.8947V22.8839C96.2604 21.6268 96.8484 20.8607 97.8302 20.8607C98.8018 20.8607 99.4055 21.6322 99.4055 22.8839V22.8947C99.4055 24.1464 98.8073 24.9179 97.8302 24.9179Z" fill="#FAFAFA"/>
<path d="M212.281 27.3976H213.529V17.3876H212.288L209.624 19.3022V20.6202L212.17 18.775H212.281V27.3976ZM221.783 27.3976H223.004V25.3235H224.426V24.2066H223.004V17.3876H221.193C219.792 19.4756 218.259 21.9174 216.907 24.1858V25.3235H221.783V27.3976ZM218.183 24.2135V24.1304C219.272 22.292 220.583 20.2248 221.707 18.5461H221.79V24.2135H218.183ZM226.36 29.9435H227.255L228.344 25.9963H226.963L226.36 29.9435ZM234.655 27.5641C236.659 27.5641 238.13 26.3293 238.13 24.6575V24.6436C238.13 23.2216 237.138 22.3128 235.682 22.188V22.1603C236.93 21.8967 237.804 21.0503 237.804 19.8156V19.8017C237.804 18.2825 236.548 17.2211 234.64 17.2211C232.768 17.2211 231.477 18.3102 231.318 19.9404L231.311 20.0097H232.511L232.518 19.9404C232.622 18.9277 233.461 18.3033 234.64 18.3033C235.861 18.3033 236.548 18.9068 236.548 19.9543V19.9682C236.548 20.9671 235.716 21.7024 234.523 21.7024H233.322V22.7568H234.578C235.98 22.7568 236.861 23.4435 236.861 24.6714V24.6853C236.861 25.7466 235.966 26.4819 234.655 26.4819C233.322 26.4819 232.414 25.8021 232.317 24.8171L232.31 24.7477H231.11L231.116 24.8309C231.248 26.4126 232.588 27.5641 234.655 27.5641ZM245.517 27.3976H246.737V25.3235H248.159V24.2066H246.737V17.3876H244.927C243.525 19.4756 241.992 21.9174 240.64 24.1858V25.3235H245.517V27.3976ZM241.916 24.2135V24.1304C243.005 22.292 244.316 20.2248 245.44 18.5461H245.523V24.2135H241.916ZM255.669 27.3976H256.876V22.7637C256.876 21.7094 257.618 20.8561 258.596 20.8561C259.539 20.8561 260.15 21.4319 260.15 22.3198V27.3976H261.357V22.5903C261.357 21.64 262.044 20.8561 263.084 20.8561C264.138 20.8561 264.645 21.4041 264.645 22.5071V27.3976H265.852V22.2296C265.852 20.6618 264.999 19.7878 263.473 19.7878C262.439 19.7878 261.586 20.3081 261.183 21.0989H261.073C260.726 20.322 260.018 19.7878 259.005 19.7878C258.027 19.7878 257.32 20.2526 256.987 21.0573H256.876V19.9196H255.669V27.3976ZM272.538 27.5294C274.431 27.5294 275.674 25.9963 275.674 23.6656V23.6517C275.674 21.307 274.438 19.7878 272.538 19.7878C271.511 19.7878 270.616 20.3011 270.207 21.0989H270.096V16.9506H268.889V27.3976H270.096V26.2045H270.207C270.665 27.0369 271.498 27.5294 272.538 27.5294ZM272.26 26.4611C270.901 26.4611 270.068 25.3929 270.068 23.6656V23.6517C270.068 21.9244 270.901 20.8561 272.26 20.8561C273.627 20.8561 274.438 21.9105 274.438 23.6517V23.6656C274.438 25.4067 273.627 26.4611 272.26 26.4611ZM278.336 29.8949H279.542V26.2184H279.654C280.063 27.0161 280.958 27.5294 281.984 27.5294C283.885 27.5294 285.119 26.0102 285.119 23.6656V23.6517C285.119 21.3209 283.878 19.7878 281.984 19.7878C280.943 19.7878 280.112 20.2803 279.654 21.1127H279.542V19.9196H278.336V29.8949ZM281.707 26.4611C280.347 26.4611 279.515 25.3929 279.515 23.6656V23.6517C279.515 21.9244 280.347 20.8561 281.707 20.8561C283.074 20.8561 283.885 21.9105 283.885 23.6517V23.6656C283.885 25.4067 283.074 26.4611 281.707 26.4611ZM290.362 27.5294C292.062 27.5294 293.359 26.6068 293.359 25.2749V25.2611C293.359 24.1928 292.679 23.5823 291.271 23.2424L290.119 22.9649C289.239 22.7498 288.864 22.4307 288.864 21.9244V21.9105C288.864 21.2515 289.516 20.7936 290.404 20.7936C291.306 20.7936 291.889 21.203 292.048 21.7925H293.235C293.068 20.5717 291.979 19.7878 290.411 19.7878C288.823 19.7878 287.629 20.7243 287.629 21.966V21.973C287.629 23.0482 288.261 23.6586 289.662 23.9916L290.82 24.269C291.743 24.4911 292.124 24.8448 292.124 25.3512V25.3651C292.124 26.0449 291.41 26.5236 290.404 26.5236C289.447 26.5236 288.85 26.1143 288.649 25.49H287.415C287.553 26.7248 288.698 27.5294 290.362 27.5294Z" fill="#FAFAFA"/>
</g>
<path fill-rule="evenodd" clip-rule="evenodd" d="M2.87012 97.6425C2.87012 97.6425 11.8123 74.8745 28.2277 70.0936C44.6431 65.3128 52.541 64.1387 52.541 64.1387C52.541 64.1387 64.1951 64.1387 73.2548 64.1387C82.3142 64.1387 80.1287 50.7085 86.5794 50.7085C93.03 50.7085 93.0174 73.1537 98.9866 73.1537C104.956 73.1537 112.786 62.1491 121.915 64.1387C131.045 66.1283 147.956 73.1537 153.431 73.1537C158.905 73.1537 163.324 50.7085 169.46 50.7085C175.596 50.7085 188.862 74.5778 193.267 73.1537C197.671 71.7295 204.764 47.9186 210.596 47.9186C215.241 47.9186 224.732 70.0631 226.767 70.0936C233.147 70.1894 237.433 58.1226 241.561 58.1226C247.007 58.1226 255.732 52.0573 265.342 50.7085C274.952 49.3597 275.338 65.3377 287.509 64.1387C290.853 63.8093 294.857 65.4417 297.61 69.3084C299.985 72.6443 301.254 77.4629 302.412 83.157C303.168 86.88 302.412 97.6425 302.412 97.6425" fill="url(#paint0_linear_5_494)"/>
<path d="M2.87012 96.1247C2.87012 96.1247 12.5813 74.4925 28.9312 69.8255C45.2811 65.1585 53.1171 64.4714 53.1171 64.4714C53.1171 64.4714 63.6692 64.4714 72.6928 64.4714C81.7159 64.4714 79.7562 51.2986 86.1816 51.2986C92.6062 51.2986 93.3931 73.2803 99.3386 73.2803C105.284 73.2803 112.633 62.5291 121.726 64.4714C130.82 66.4135 147.378 73.2803 152.83 73.2803C158.282 73.2803 162.518 51.2986 168.629 51.2986C174.74 51.2986 188.214 74.6705 192.601 73.2803C196.988 71.8901 204.071 48.3132 209.881 48.3132C214.507 48.3132 224.025 69.7957 226.052 69.8255C232.406 69.9191 236.65 58.2424 240.763 58.2424C246.187 58.2424 254.191 52.6152 263.763 51.2986C273.335 49.9818 274.306 65.6419 286.429 64.4714C298.551 63.3008 302.79 84.7024 302.79 84.7024" stroke="#2B7FFF" stroke-width="2.36776"/>
</g>
<defs>
<linearGradient id="paint0_linear_5_494" x1="2.87012" y1="47.9186" x2="2.87012" y2="97.6425" gradientUnits="userSpaceOnUse">
<stop stop-color="white" stop-opacity="0.1"/>
<stop offset="1" stop-opacity="0.103775"/>
</linearGradient>
<clipPath id="clip0_5_494">
<rect width="304.66" height="97.08" fill="white" transform="translate(0.5 0.5625)"/>
</clipPath>
</defs>
</svg>
