<svg width="65" height="65" viewBox="0 0 65 65" fill="none" xmlns="http://www.w3.org/2000/svg">
<path d="M35.8398 5.89581H26.8398C26.3094 5.89581 25.8007 6.45772 25.4256 7.45791C25.0506 8.4581 24.8398 9.81466 24.8398 11.2291V53.8958C24.8398 55.3103 25.0506 56.6669 25.4256 57.667C25.8007 58.6672 26.3094 59.2291 26.8398 59.2291H38.8398C39.3703 59.2291 39.879 58.6672 40.2541 57.667C40.6291 56.6669 40.8398 55.3103 40.8398 53.8958V19.2291L35.8398 5.89581Z" stroke="white" stroke-width="2" stroke-linecap="round" stroke-linejoin="round"/>
<path d="M34.8398 5.89581V16.5625C34.8398 17.977 35.0506 19.3335 35.4256 20.3337C35.8007 21.3339 36.3094 21.8958 36.8398 21.8958H40.8398" stroke="white" stroke-width="2" stroke-linecap="round" stroke-linejoin="round"/>
<path d="M29.8398 40.5625L31.8398 45.8959L35.8398 35.2292" stroke="white" stroke-width="2" stroke-linecap="round" stroke-linejoin="round"/>
</svg>
