<svg width="143" height="143" viewBox="0 0 143 143" fill="none" xmlns="http://www.w3.org/2000/svg">
<path d="M71.8398 8.0625C106.91 8.0625 135.34 36.4924 135.34 71.5625C135.34 106.633 106.91 135.062 71.8398 135.062C36.7698 135.062 8.33984 106.633 8.33984 71.5625C8.33984 36.4924 36.7698 8.0625 71.8398 8.0625Z" stroke="#2B7FFF" stroke-opacity="0.15"/>
<path d="M71.8398 1.0625C110.776 1.0625 142.34 32.6264 142.34 71.5625C142.34 110.499 110.776 142.062 71.8398 142.062C32.9038 142.062 1.33984 110.499 1.33984 71.5625C1.33984 32.6264 32.9038 1.0625 71.8398 1.0625Z" stroke="#2B7FFF" stroke-opacity="0.4"/>
<path d="M74.8398 44.8958H65.8398C65.3094 44.8958 64.8007 45.4577 64.4256 46.4579C64.0506 47.4581 63.8398 48.8147 63.8398 50.2291V92.8958C63.8398 94.3103 64.0506 95.6669 64.4256 96.667C64.8007 97.6672 65.3094 98.2291 65.8398 98.2291H77.8398C78.3703 98.2291 78.879 97.6672 79.2541 96.667C79.6291 95.6669 79.8398 94.3103 79.8398 92.8958V58.2291L74.8398 44.8958Z" stroke="white" stroke-width="2" stroke-linecap="round" stroke-linejoin="round"/>
<path d="M73.8398 44.8958V55.5625C73.8398 56.977 74.0506 58.3335 74.4256 59.3337C74.8007 60.3339 75.3094 60.8958 75.8398 60.8958H79.8398" stroke="white" stroke-width="2" stroke-linecap="round" stroke-linejoin="round"/>
<path d="M68.8398 79.5625L70.8398 84.8959L74.8398 74.2292" stroke="white" stroke-width="2" stroke-linecap="round" stroke-linejoin="round"/>
</svg>
